# File created by Blade
# Date/Time:  Tue Sep 30 19:29:03 2014
#---------------------------------------------------------
:version 1.10
:name HOM
:units
  mass 1.0
  length 1.000000
  angle deg
:documentation
     Acclaim Skeleton File
:root
   axis xyz
   order TX TY TZ RX RY RZ
   position 0.000000 0.000000 0.000000
   orientation 0 0 0
:bonedata
   begin
      id 1
      name RightUpLeg_dum
      direction -1.000000 0.000000 0.000000
      length 3.766986
      axis 0.0 0.0 0.0 xyz
   end
   begin
      id 2
      name LeftUpLeg_dum
      direction 1.000000 0.000000 0.000000
      length 3.766986
      axis 0.0 0.0 0.0 xyz
   end
   begin
      id 3
      name Spine_dum
      direction 0.000000 1.000000 0.000000
      length 7.779697
      axis 0.0 0.0 0.0 xyz
   end
   begin
      id 4
      name RightUpLeg
      direction 0.000000 -1.000000 0.000000
      length 18.017682
      axis 0.0 0.0 0.0 xyz
      dof rx ry rz
   end
   begin
      id 5
      name RightLeg
      direction 0.000000 -1.000000 0.000000
      length 16.881075
      axis 0.0 0.0 0.0 xyz
      dof rx ry rz
   end
   begin
      id 6
      name RightFoot
      direction 0.000000 -0.258819 0.965926
      length 5.770812
      axis 15.0 0.0 0.0 xyz
      dof rx ry rz
   end
   begin
      id 7
      name RightToeBase
      direction 0.000000 0.000000 1.000000
      length 2.952750
      axis 0.0 0.0 0.0 xyz
      dof rx ry rz
   end
   begin
      id 8
      name LeftUpLeg
      direction 0.000000 -1.000000 0.000000
      length 18.017682
      axis 0.0 0.0 0.0 xyz
      dof rx ry rz
   end
   begin
      id 9
      name LeftLeg
      direction 0.000000 -1.000000 0.000000
      length 16.881075
      axis 0.0 0.0 0.0 xyz
      dof rx ry rz
   end
   begin
      id 10
      name LeftFoot
      direction 0.000000 -0.258819 0.965926
      length 5.770812
      axis 15.0 0.0 0.0 xyz
      dof rx ry rz
   end
   begin
      id 11
      name LeftToeBase
      direction 0.000000 0.000000 1.000000
      length 2.952750
      axis 0.0 0.0 0.0 xyz
      dof rx ry rz
   end
   begin
      id 12
      name Spine
      direction 0.000000 1.000000 0.000000
      length 0.000000
      axis 0.0 0.0 0.0 xyz
      dof rx ry rz
   end
   begin
      id 13
      name Spine_dum1
      direction 0.000000 1.000000 0.000000
      length 10.941760
      axis 0.0 0.0 0.0 xyz
   end
   begin
      id 14
      name Spine_dum2
      direction 0.000000 1.000000 0.000000
      length 10.941760
      axis 0.0 0.0 0.0 xyz
   end
   begin
      id 15
      name Spine_dum3
      direction 0.000000 1.000000 0.000000
      length 16.646042
      axis 0.0 0.0 0.0 xyz
   end
   begin
      id 16
      name RightShoulder
      direction -1.000000 0.000000 0.000000
      length 7.708937
      axis 0.0 0.0 90.0 xyz
      dof rx ry rz
   end
   begin
      id 17
      name RightArm
      direction -1.000000 0.000000 0.000000
      length 11.521345
      axis 0.0 0.0 90.0 xyz
      dof rx ry rz
   end
   begin
      id 18
      name RightForeArm
      direction -1.000000 0.000000 0.000000
      length 10.175898
      axis 0.0 0.0 90.0 xyz
      dof ry rz rx
   end
   begin
      id 19
      name RightHand
      direction -1.000000 0.000000 0.000000
      length 0.000000
      axis 0.0 0.0 90.0 xyz
      dof rx ry rz
   end
   begin
      id 20
      name RightHand_dum1
      direction -1.000000 0.000000 0.000000
      length 3.937000
      axis 0.0 0.0 90.0 xyz
   end
   begin
      id 21
      name RightHand_dum2
      direction 0.000000 0.000000 0.000000
      length 0.000000
      axis 0.0 0.0 90.0 xyz
   end
   begin
      id 22
      name RightHandThumb1
      direction 0.000000 0.000000 1.000000
      length 3.937000
      axis 0.0 0.0 90.0 xyz
      dof rx rz ry
   end
   begin
      id 23
      name LeftShoulder
      direction 1.000000 0.000000 0.000000
      length 7.708937
      axis 0.0 0.0 -90.0 xyz
      dof rx ry rz
   end
   begin
      id 24
      name LeftArm
      direction 1.000000 0.000000 0.000000
      length 11.521345
      axis 0.0 0.0 -90.0 xyz
      dof rx ry rz
   end
   begin
      id 25
      name LeftForeArm
      direction 1.000000 0.000000 0.000000
      length 10.175898
      axis 0.0 0.0 -90.0 xyz
      dof ry rz rx
   end
   begin
      id 26
      name LeftHand
      direction 1.000000 0.000000 0.000000
      length 0.000000
      axis 0.0 0.0 -90.0 xyz
      dof rx ry rz
   end
   begin
      id 27
      name LeftHand_dum1
      direction 1.000000 0.000000 0.000000
      length 3.937000
      axis 0.0 0.0 -90.0 xyz
   end
   begin
      id 28
      name LeftHand_dum2
      direction 0.000000 0.000000 0.000000
      length 0.000000
      axis 0.0 0.0 -90.0 xyz
   end
   begin
      id 29
      name LeftHandThumb1
      direction 0.000000 0.000000 1.000000
      length 3.937000
      axis 0.0 0.0 -90.0 xyz
      dof rx rz ry
   end
   begin
      id 30
      name Head
      direction 0.000000 1.000000 0.000000
      length 4.527550
      axis 0.0 0.0 0.0 xyz
      dof rx ry rz
   end
:hierarchy
   begin
      root RightUpLeg_dum LeftUpLeg_dum Spine_dum
      RightUpLeg_dum RightUpLeg
      LeftUpLeg_dum LeftUpLeg
      Spine_dum Spine
      RightUpLeg RightLeg
      RightLeg RightFoot
      RightFoot RightToeBase
      LeftUpLeg LeftLeg
      LeftLeg LeftFoot
      LeftFoot LeftToeBase
      Spine Spine_dum1 Spine_dum2 Spine_dum3
      Spine_dum1 RightShoulder
      Spine_dum2 LeftShoulder
      Spine_dum3 Head
      RightShoulder RightArm
      RightArm RightForeArm
      RightForeArm RightHand
      RightHand RightHand_dum1 RightHand_dum2
      RightHand_dum2 RightHandThumb1
      LeftShoulder LeftArm
      LeftArm LeftForeArm
      LeftForeArm LeftHand
      LeftHand LeftHand_dum1 LeftHand_dum2
      LeftHand_dum2 LeftHandThumb1
   end

# File created by Blade
# Date/Time:  Mon Sep 22 16:09:39 2014
# Frame Rate: 120.000 fps
#------------------------------------------------------
:FULLY-SPECIFIED
:DEGREES
622
root 2.661711 37.029983 1.666130 0.169803 -2.198912 1.494879
RightUpLeg 6.594662 -6.248834 -2.507771
RightLeg -4.579563 -0.000000 0.000000
RightFoot -13.036684 -16.455418 15.972949
RightToeBase 14.764802 -0.000000 -0.000000
LeftUpLeg 3.978073 0.332478 1.928908
LeftLeg -1.202194 -0.000000 0.000000
LeftFoot -9.609130 12.971389 -16.586163
LeftToeBase 9.538924 -0.000000 -0.000000
Spine -0.231472 2.719278 0.035017
RightShoulder 10.905733 -27.129367 -9.168661
RightArm 43.054630 -38.934381 44.372420
RightForeArm 83.969510 -0.000000 86.173040
RightHand 2.003944 -0.000000 12.094446
RightHandThumb1 -24.326973 -0.000000 -32.862282
LeftShoulder -15.733056 37.091026 -2.018097
LeftArm 50.243955 27.631509 -48.720311
LeftForeArm 24.075276 -0.000000 32.203925
LeftHand -12.598812 -0.000000 -12.242789
LeftHandThumb1 -26.253704 0.000000 33.147579
Head 3.688633 0.174066 6.074480
623
root 2.668162 37.030473 1.660350 0.154050 -2.225143 1.482267
RightUpLeg 6.589185 -6.252078 -2.509421
RightLeg -4.562331 -0.000000 0.000000
RightFoot -13.022202 -16.416661 15.989063
RightToeBase 14.804639 -0.000000 -0.000000
LeftUpLeg 3.984091 0.318905 1.928605
LeftLeg -1.196180 -0.000000 0.000000
LeftFoot -9.654834 13.023576 -16.637508
LeftToeBase 9.682407 -0.000000 -0.000000
Spine -0.183888 2.740080 0.060612
RightShoulder 11.032474 -27.074854 -9.224346
RightArm 42.751083 -38.185317 44.316437
RightForeArm 84.137031 -0.000000 86.969823
RightHand 2.068816 -0.000000 11.576125
RightHandThumb1 -24.326973 -0.000000 -32.862282
LeftShoulder -15.679489 37.088888 -1.962833
LeftArm 50.111886 27.559606 -48.983254
LeftForeArm 24.054287 0.000000 32.237987
LeftHand -12.463202 0.000000 -12.403065
LeftHandThumb1 -26.253704 0.000000 33.147579
Head 3.618069 0.144921 6.093898
624
root 2.675863 37.030832 1.655948 0.126122 -2.271684 1.483501
RightUpLeg 6.588125 -6.262540 -2.528413
RightLeg -4.533536 -0.000000 0.000000
RightFoot -12.997003 -16.362718 15.961919
RightToeBase 14.770461 -0.000000 -0.000000
LeftUpLeg 4.008113 0.321650 1.913507
LeftLeg -1.188641 -0.000000 0.000000
LeftFoot -9.669281 13.058029 -16.651717
LeftToeBase 9.653223 -0.000000 -0.000000
Spine -0.128392 2.766305 0.051822
RightShoulder 11.228978 -27.004891 -9.289358
RightArm 42.271530 -37.274482 44.329052
RightForeArm 84.018714 -0.000000 88.008489
RightHand 1.704071 -0.000000 11.150067
RightHandThumb1 -24.326973 -0.000000 -32.862282
LeftShoulder -15.643124 37.106764 -1.878811
LeftArm 50.050464 27.516327 -49.211294
LeftForeArm 24.064469 0.000000 32.221958
LeftHand -12.644128 -0.000000 -12.073689
LeftHandThumb1 -26.253704 0.000000 33.147579
Head 3.555097 0.103301 6.150479
625
root 2.685177 37.030823 1.648733 0.111472 -2.322020 1.489281
RightUpLeg 6.576328 -6.242213 -2.552111
RightLeg -4.520011 -0.000000 0.000000
RightFoot -12.989073 -16.342714 15.933893
RightToeBase 14.776180 -0.000000 -0.000000
LeftUpLeg 4.013255 0.316484 1.889610
LeftLeg -1.179959 -0.000000 0.000000
LeftFoot -9.689984 13.112775 -16.640061
LeftToeBase 9.675338 -0.000000 -0.000000
Spine -0.081891 2.799414 0.044686
RightShoulder 11.436326 -26.914389 -9.373398
RightArm 41.792019 -36.335857 44.389117
RightForeArm 84.073335 -0.000000 89.178313
RightHand 1.994438 -0.000000 10.994187
RightHandThumb1 -24.326973 -0.000000 -32.862282
LeftShoulder -15.615122 37.159011 -1.801635
LeftArm 50.060991 27.470546 -49.382893
LeftForeArm 24.014035 0.000000 32.185172
LeftHand -12.625252 -0.000000 -11.962513
LeftHandThumb1 -26.253704 0.000000 33.147579
Head 3.489706 0.072875 6.233276
626
root 2.692415 37.030218 1.641569 0.084018 -2.402630 1.491428
RightUpLeg 6.597223 -6.154288 -2.566351
RightLeg -4.557664 -0.000000 0.000000
RightFoot -12.967199 -16.347569 15.961577
RightToeBase 14.818561 -0.000000 -0.000000
LeftUpLeg 4.035874 0.348156 1.874958
LeftLeg -1.169150 -0.000000 0.000000
LeftFoot -9.708127 13.151419 -16.629761
LeftToeBase 9.682122 -0.000000 -0.000000
Spine -0.013939 2.888024 0.038537
RightShoulder 11.636088 -26.818304 -9.466904
RightArm 41.240613 -35.299203 44.399836
RightForeArm 84.149612 0.000000 90.605434
RightHand 2.271096 -0.000000 10.646877
RightHandThumb1 -24.326973 -0.000000 -32.862282
LeftShoulder -15.539400 37.145220 -1.683854
LeftArm 50.043927 27.487267 -49.515983
LeftForeArm 23.963277 -0.000000 32.163500
LeftHand -12.636982 0.000000 -11.870860
LeftHandThumb1 -26.253704 0.000000 33.147579
Head 3.402661 0.008180 6.304268
627
root 2.698610 37.029918 1.635040 0.042287 -2.517265 1.479133
RightUpLeg 6.622612 -6.082029 -2.567878
RightLeg -4.583881 -0.000000 0.000000
RightFoot -12.905972 -16.322466 15.935364
RightToeBase 14.781391 -0.000000 -0.000000
LeftUpLeg 4.086979 0.403445 1.874638
LeftLeg -1.173285 -0.000000 0.000000
LeftFoot -9.734175 13.200633 -16.642931
LeftToeBase 9.638821 -0.000000 -0.000000
Spine 0.086073 3.011362 0.054113
RightShoulder 11.838621 -26.652029 -9.586456
RightArm 40.591458 -34.208093 44.498216
RightForeArm 84.098058 -0.000000 92.267158
RightHand 2.525177 0.000000 10.335073
RightHandThumb1 -24.326973 -0.000000 -32.862282
LeftShoulder -15.483747 37.131400 -1.593176
LeftArm 50.067424 27.530755 -49.554308
LeftForeArm 23.916478 -0.000000 32.187108
LeftHand -12.683496 -0.000000 -11.845923
LeftHandThumb1 -26.253704 0.000000 33.147579
Head 3.280393 -0.034497 6.379385
628
root 2.705216 37.029557 1.624409 0.041784 -2.619534 1.461914
RightUpLeg 6.589425 -6.033950 -2.561137
RightLeg -4.583574 -0.000000 0.000000
RightFoot -12.863841 -16.282341 15.914149
RightToeBase 14.744547 -0.000000 -0.000000
LeftUpLeg 4.084452 0.448725 1.878370
LeftLeg -1.169667 -0.000000 0.000000
LeftFoot -9.765843 13.248287 -16.646328
LeftToeBase 9.672318 -0.000000 -0.000000
Spine 0.143668 3.166147 0.082920
RightShoulder 12.010296 -26.443726 -9.754917
RightArm 39.805480 -33.080386 44.785598
RightForeArm 84.412501 -0.000000 94.224249
RightHand 2.819679 -0.000000 10.025075
RightHandThumb1 -24.326973 -0.000000 -32.862282
LeftShoulder -15.411463 37.133251 -1.504419
LeftArm 50.163723 27.590678 -49.509584
LeftForeArm 23.889667 -0.000000 32.190983
LeftHand -12.681762 -0.000000 -11.859639
LeftHandThumb1 -26.253704 0.000000 33.147579
Head 3.145665 -0.097961 6.447652
629
root 2.716806 37.028407 1.618091 0.002221 -2.722110 1.468038
RightUpLeg 6.606113 -6.026856 -2.596616
RightLeg -4.593517 -0.000000 0.000000
RightFoot -12.829255 -16.186362 15.910747
RightToeBase 14.788245 -0.000000 -0.000000
LeftUpLeg 4.132128 0.492956 1.852718
LeftLeg -1.178629 -0.000000 0.000000
LeftFoot -9.779424 13.303692 -16.626290
LeftToeBase 9.640394 -0.000000 -0.000000
Spine 0.259713 3.316194 0.113671
RightShoulder 12.161161 -26.219368 -10.004646
RightArm 39.010734 -31.863601 45.226404
RightForeArm 85.006501 -0.000000 96.448107
RightHand 2.897182 -0.000000 9.532292
RightHandThumb1 -24.326973 -0.000000 -32.862282
LeftShoulder -15.376061 37.107717 -1.459055
LeftArm 50.281108 27.692914 -49.363673
LeftForeArm 23.800913 -0.000000 32.262866
LeftHand -12.628718 -0.000000 -12.105171
LeftHandThumb1 -26.253704 0.000000 33.147579
Head 2.971053 -0.136129 6.486335
630
root 2.722528 37.028470 1.608300 0.000387 -2.844408 1.444510
RightUpLeg 6.585444 -5.961084 -2.584824
RightLeg -4.621263 -0.000000 0.000000
RightFoot -12.771981 -16.137482 15.912388
RightToeBase 14.838485 -0.000000 -0.000000
LeftUpLeg 4.139440 0.549484 1.867705
LeftLeg -1.182875 -0.000000 0.000000
LeftFoot -9.813652 13.338277 -16.658621
LeftToeBase 9.665588 -0.000000 -0.000000
Spine 0.327726 3.539008 0.165415
RightShoulder 12.280800 -25.949870 -10.296869
RightArm 38.113097 -30.652645 45.862191
RightForeArm 85.578019 -0.000000 98.911569
RightHand 3.191090 -0.000000 9.286785
RightHandThumb1 -24.326973 -0.000000 -32.862282
LeftShoulder -15.284334 37.109547 -1.378059
LeftArm 50.456447 27.809696 -49.135265
LeftForeArm 23.781889 -0.000000 32.320643
LeftHand -12.814224 -0.000000 -11.847630
LeftHandThumb1 -26.253704 0.000000 33.147579
Head 2.794508 -0.178387 6.528790
631
root 2.730050 37.028655 1.600489 -0.030087 -2.986897 1.433563
RightUpLeg 6.585159 -5.943551 -2.593253
RightLeg -4.625220 -0.000000 0.000000
RightFoot -12.711662 -16.034864 15.875191
RightToeBase 14.813904 -0.000000 -0.000000
LeftUpLeg 4.183463 0.631975 1.864103
LeftLeg -1.191321 -0.000000 0.000000
LeftFoot -9.833022 13.392886 -16.646647
LeftToeBase 9.658822 -0.000000 -0.000000
Spine 0.456591 3.797481 0.221720
RightShoulder 12.389932 -25.671308 -10.667063
RightArm 37.147622 -29.375995 46.682163
RightForeArm 86.043146 -0.000000 101.684829
RightHand 3.589001 -0.000000 8.789441
RightHandThumb1 -24.326973 -0.000000 -32.862282
LeftShoulder -15.212559 37.052562 -1.311767
LeftArm 50.653524 27.953123 -48.878662
LeftForeArm 23.669542 -0.000000 32.343972
LeftHand -12.591657 -0.000000 -12.167646
LeftHandThumb1 -26.253704 0.000000 33.147579
Head 2.567056 -0.238082 6.543169
632
root 2.738785 37.029263 1.593208 -0.045665 -3.106881 1.419908
RightUpLeg 6.590153 -5.897216 -2.601301
RightLeg -4.668887 -0.000000 0.000000
RightFoot -12.644491 -15.967991 15.887722
RightToeBase 14.813100 -0.000000 -0.000000
LeftUpLeg 4.212951 0.665761 1.859696
LeftLeg -1.201314 -0.000000 0.000000
LeftFoot -9.833442 13.454350 -16.616804
LeftToeBase 9.582186 -0.000000 -0.000000
Spine 0.561787 4.086324 0.287572
RightShoulder 12.471323 -25.321459 -11.078913
RightArm 36.014995 -28.096842 47.881753
RightForeArm 86.176767 -0.000000 104.676967
RightHand 4.169642 -0.000000 8.771891
RightHandThumb1 -24.326973 -0.000000 -32.862282
LeftShoulder -15.079975 36.975453 -1.207552
LeftArm 50.814593 28.127472 -48.623925
LeftForeArm 23.762719 -0.000000 32.402042
LeftHand -12.548887 -0.000000 -12.086814
LeftHandThumb1 -26.253704 0.000000 33.147579
Head 2.339690 -0.318807 6.601871
